<?xml version="1.0" encoding="UTF-8"?> <svg xmlns="http://www.w3.org/2000/svg" xmlns:xlink="http://www.w3.org/1999/xlink" xmlns:svgjs="http://svgjs.com/svgjs" width="650.000000pt" height="651.000000pt"> <svg xmlns="http://www.w3.org/2000/svg" width="650.000000pt" height="651.000000pt" viewBox="0 0 650.000000 651.000000" preserveAspectRatio="xMidYMid meet"> <g transform="translate(0.000000,651.000000) scale(0.100000,-0.100000)" fill="#000000" stroke="none"> <path d="M2500 5739 c-164 -32 -305 -186 -330 -361 -12 -82 -12 -454 0 -536 25 -180 166 -329 339 -362 29 -5 179 -10 332 -10 l279 0 0 -104 0 -105 -517 -3 c-501 -3 -520 -4 -575 -24 -121 -46 -188 -117 -172 -181 4 -15 44 -66 88 -113 89 -94 136 -159 188 -265 60 -120 82 -200 123 -455 27 -166 43 -211 81 -229 35 -16 1753 -16 1788 0 38 18 54 63 81 229 41 255 63 335 123 455 52 104 97 169 188 266 45 48 84 99 88 113 16 63 -53 134 -172 180 -55 20 -74 21 -574 24 l-518 3 0 105 0 104 279 0 c153 0 303 5 332 10 173 33 314 182 339 362 12 82 12 454 0 536 -25 180 -166 329 -339 362 -66 12 -1386 12 -1451 -1z"></path> <path d="M1097 4025 c-47 -18 -105 -59 -139 -100 -82 -98 -94 -240 -32 -356 52 -94 145 -152 266 -164 83 -9 146 -45 172 -100 10 -20 42 -181 72 -363 30 -180 64 -355 75 -389 38 -115 134 -240 249 -321 59 -42 183 -90 267 -102 37 -5 296 -10 576 -10 377 0 507 -3 507 -12 0 -44 -63 -624 -68 -629 -4 -3 -59 -11 -122 -18 -303 -30 -543 -111 -666 -223 -152 -139 -103 -330 113 -446 239 -127 713 -189 1133 -147 502 49 794 200 793 409 -1 73 -27 128 -87 184 -123 112 -363 193 -666 223 -63 7 -118 15 -122 18 -5 5 -68 585 -68 629 0 9 130 12 508 12 279 0 538 5 575 10 84 12 208 60 267 102 115 81 211 206 249 321 11 34 45 209 75 389 30 182 62 343 72 363 26 55 89 91 172 100 129 13 220 74 273 180 60 123 37 266 -60 362 -63 62 -121 87 -216 92 -325 15 -653 -205 -775 -520 -24 -63 -45 -160 -88 -418 l-57 -336 -1115 0 -1115 0 -57 336 c-43 258 -64 355 -88 418 -119 308 -431 523 -753 520 -45 0 -99 -7 -120 -14z"></path> </g> </svg> <style>@media (prefers-color-scheme: light) { :root { filter: none; } } </style> </svg> 